<svg width="138" height="80" viewBox="0 0 138 80" fill="none" xmlns="http://www.w3.org/2000/svg">
<path d="M27.8357 34.1923C28.4843 33.3232 28.6519 32.5296 28.9816 31.817C29.133 31.4985 29.2195 31.0612 29.7006 31.1476C30.0952 31.2178 30.0843 31.6119 30.1438 31.9196C30.3654 33.0695 30.587 34.2193 30.8249 35.3638C30.8952 35.6985 30.8303 36.1088 31.36 36.3733C31.7114 33.3232 32.0519 30.3324 32.3925 27.3417C32.4249 27.061 32.4357 26.7748 32.4844 26.4995C32.5384 26.1918 32.533 25.7923 32.9763 25.7869C33.4141 25.7761 33.4357 26.1702 33.506 26.4779C33.9114 28.2864 34.3114 30.0949 34.7114 31.9088C34.7979 32.2921 34.7979 32.7078 35.2303 33.1018C35.5655 32.3785 35.8682 31.6982 36.1925 31.0234C36.3439 30.7103 36.4141 30.2515 36.879 30.3054C37.3223 30.354 37.3439 30.7913 37.4358 31.1422C37.5169 31.4391 37.652 31.7252 37.9061 32.3677C38.2682 30.543 38.5655 29.0638 38.8574 27.5792C38.9385 27.1635 38.8574 26.5373 39.4736 26.5967C39.9709 26.6453 39.8628 27.2337 39.8845 27.6116C40.0412 29.9437 40.1709 32.2813 40.3277 34.6188C40.3655 35.1749 40.452 35.7255 40.5547 36.5785C41.1493 35.3206 41.2304 34.2517 41.5223 33.2422C41.625 32.8805 41.5656 32.3191 42.1115 32.3245C42.6737 32.3299 42.5872 32.9021 42.6467 33.2584C42.8899 34.6998 43.0953 36.1466 43.3169 37.5934C43.425 37.5934 43.5332 37.5826 43.6359 37.5772C43.825 35.3962 44.0305 33.2206 44.198 31.0396C44.4737 27.4227 44.7278 23.8003 44.9872 20.1779C44.9926 20.0969 44.9872 20.016 45.0143 19.935C45.1386 19.4599 44.944 18.6501 45.5602 18.6393C46.2359 18.6231 46.0629 19.4275 46.1224 19.908C46.6251 23.9029 47.117 27.9031 47.6089 31.9196C48.1602 31.871 48.0467 31.3905 48.2197 31.1206C48.3278 30.9533 48.4035 30.6186 48.5008 30.6132C50.3116 30.5592 49.4305 29.0368 49.8251 28.2216C50.09 27.671 49.717 26.6075 50.4468 26.5805C51.317 26.5481 51.0792 27.6008 51.2089 28.2162C51.4414 29.2797 51.6143 30.354 51.7873 31.4283C51.8846 32.0222 52.2684 32.0977 52.7603 32.0491C53.2414 32.0006 53.236 31.6713 53.1549 31.342C52.0954 27.0772 53.663 23.3036 55.4522 19.6165C58.755 12.809 62.9929 6.56836 67.3875 0.435693C67.874 -0.244514 68.1118 -0.0501694 68.501 0.484279C71.02 3.9393 73.4308 7.4645 75.6687 11.1085C78.1768 15.2005 80.5877 19.3411 82.1985 23.8975C83.0363 26.2782 83.3715 28.6697 82.7661 31.1368C82.5985 31.8332 82.7877 32.0492 83.5066 32.0761C85.8958 32.1733 85.8958 32.2003 86.3337 29.852C86.4958 28.9774 86.6364 28.1029 86.804 27.2337C86.8634 26.9314 86.8526 26.5265 87.2905 26.5049C87.8256 26.4779 87.7823 26.953 87.8364 27.2823C87.9932 28.1946 88.1121 29.1178 88.258 30.0355C88.2851 30.2191 88.2688 30.597 88.4418 30.5376C89.8202 30.0733 89.4202 31.5795 90.1824 32.0815C90.5391 29.2257 90.8851 26.4887 91.2148 23.7571C91.3878 22.3157 91.5446 20.8743 91.7013 19.4275C91.7392 19.0712 91.7013 18.6124 92.1878 18.6016C92.6905 18.5908 92.6635 19.0766 92.6959 19.4167C92.9932 22.7908 93.2851 26.1648 93.5554 29.5389C93.7716 32.2003 93.9554 34.8671 94.2797 37.534C94.8095 36.3355 94.8365 35.0561 95.0905 33.8198C95.1554 33.5067 95.1933 33.1828 95.2635 32.8697C95.323 32.5944 95.3662 32.2813 95.7554 32.2975C96.1068 32.3137 96.1879 32.5836 96.2527 32.8805C96.5068 33.971 96.7771 35.0561 97.1068 36.4057C97.55 35.3584 97.4798 34.5163 97.5338 33.6957C97.6744 31.6065 97.7933 29.5119 97.9446 27.4227C97.9663 27.0934 97.8852 26.5805 98.4095 26.5913C98.869 26.6021 98.869 27.0718 98.9392 27.4227C99.2474 28.9072 99.5555 30.3972 99.9393 32.2651C100.145 31.8548 100.188 31.7414 100.247 31.6443C100.523 31.1962 100.247 30.2946 101.01 30.3162C101.642 30.3324 101.604 31.18 101.896 31.6389C102.172 32.0761 102.237 32.6322 102.728 33.0587C103.312 32.0869 103.296 30.991 103.561 29.9761C103.842 28.8856 104.037 27.7736 104.291 26.6723C104.377 26.2998 104.366 25.7437 104.912 25.7923C105.41 25.8409 105.393 26.3646 105.437 26.7586C105.718 29.5281 105.993 32.2975 106.28 35.0615C106.323 35.4934 106.426 35.9253 106.545 36.6001C107.134 35.2288 107.264 33.9926 107.539 32.7887C107.62 32.4324 107.685 32.0761 107.766 31.7252C107.831 31.4499 107.896 31.1314 108.253 31.1314C108.588 31.1314 108.702 31.4229 108.81 31.6928C109.118 32.4648 109.426 33.2422 109.826 34.2463C110.377 33.1126 110.453 32.1139 110.712 31.18C110.793 30.8777 110.82 30.4998 111.237 30.462C111.572 30.435 111.707 30.7373 111.853 30.9695C112.399 31.817 112.999 32.6376 113.464 33.5283C113.972 34.5055 114.664 34.8618 115.777 34.8294C118.723 34.7538 121.669 34.8024 124.615 34.8024C124.94 34.8024 125.264 34.8024 125.583 34.8402C125.826 34.8671 126.075 34.9643 126.075 35.272C126.075 35.5798 125.837 35.6661 125.583 35.6877C125.302 35.7093 125.021 35.7201 124.734 35.7201C121.507 35.7201 118.275 35.6931 115.048 35.7309C114.188 35.7417 113.615 35.5258 113.188 34.7376C112.739 33.9062 112.145 33.1558 111.447 32.1247C111.112 33.4905 110.858 34.5648 110.588 35.6391C110.502 35.9792 110.534 36.4651 110.096 36.5137C109.566 36.5731 109.539 36.0278 109.388 35.6769C109.107 35.0183 108.847 34.3489 108.474 33.4204C107.847 35.0291 107.739 36.4759 107.41 37.8687C107.237 38.6137 107.107 39.3695 106.956 40.1145C106.891 40.4276 106.874 40.8109 106.437 40.7893C105.999 40.7677 106.01 40.3736 105.972 40.0605C105.734 38.0576 105.523 36.0548 105.258 34.0574C105.085 32.7509 105.134 31.4121 104.507 30.1165C104.177 31.5471 103.847 32.9777 103.512 34.4137C103.415 34.8294 103.447 35.4016 102.885 35.4448C102.377 35.4826 102.361 34.9103 102.183 34.5756C101.847 33.9386 101.734 33.199 101.21 32.5836C100.62 33.1936 100.707 34.025 100.42 34.6998C100.307 34.9643 100.253 35.2828 99.9068 35.2828C99.5447 35.2828 99.5392 34.9535 99.4419 34.689C99.123 33.8468 99.2582 32.8805 98.5446 32.0923C98.4149 34.3219 98.3176 36.5569 98.1446 38.781C98.0852 39.5152 98.523 40.7515 97.5879 40.8433C96.8095 40.9242 96.9987 39.6286 96.7716 38.943C96.4581 38.0091 96.2473 37.0427 95.8689 36.098C95.3284 37.5178 95.3014 39.0078 95.0473 40.4492C94.9176 41.1996 94.8527 41.9661 94.6959 42.7111C94.6311 43.0188 94.6527 43.5587 94.1446 43.4939C93.7067 43.4399 93.7013 42.9703 93.6743 42.614C93.4365 39.7204 93.1986 36.8268 92.9716 33.9332C92.7662 31.2772 92.577 28.6211 92.377 25.9651C92.3608 25.7437 92.4365 25.463 91.9824 25.2633C91.631 28.0435 91.2797 30.7697 90.9391 33.4959C90.8905 33.8954 90.8689 34.3003 90.8148 34.6998C90.7824 34.9427 90.6689 35.3044 90.4472 35.2558C89.0094 34.9643 89.6743 36.0494 89.6472 36.5353C89.5878 37.6204 89.6797 38.7109 89.6905 39.8014C89.6905 40.1469 89.7986 40.6165 89.2959 40.6813C88.7499 40.7515 88.7986 40.2494 88.7553 39.9201C88.3607 37.2101 87.9878 34.4947 87.5986 31.7792C87.5445 31.3905 87.4472 31.0018 87.3661 30.5808C87.2256 30.6563 87.1337 30.6725 87.1229 30.7157C86.5391 32.9561 86.5391 33.0425 84.1499 32.9291C82.7823 32.8643 82.1336 33.2908 81.5823 34.5864C78.6201 41.5181 69.6362 45.0433 62.5874 42.2091C58.5171 40.5679 55.6252 37.7715 53.9225 33.7497C53.6846 33.1828 53.3657 32.8697 52.7549 32.9615C51.5819 33.1396 50.9116 32.7348 50.89 31.4661C50.89 31.2394 50.7603 31.0126 50.5981 30.4728C50.0522 32.2975 50.0251 33.9008 49.7711 35.4556C49.5224 36.9672 49.3062 38.4841 49.0738 39.9957C49.0251 40.3088 49.0305 40.7191 48.5981 40.7137C48.0521 40.7137 48.1386 40.244 48.144 39.8985C48.1602 38.5651 48.1981 37.2371 48.2143 35.9037C48.2143 35.542 48.4143 35.1533 47.6413 35.2234C46.8359 35.299 47.0359 34.4029 46.971 33.9224C46.6089 31.3258 46.3224 28.7237 46.0035 26.1216C45.971 25.8463 45.9062 25.5764 45.5872 25.2957C45.4467 27.034 45.3061 28.7777 45.1656 30.516C44.8359 34.5378 44.5061 38.5543 44.1764 42.5762C44.144 42.9703 44.171 43.5101 43.6359 43.4993C43.2034 43.4885 43.2142 42.9595 43.1602 42.6194C42.8683 40.7461 42.6034 38.8674 42.3223 36.9941C42.2629 36.6109 42.3277 36.179 41.8466 35.8335C41.5331 37.2209 41.252 38.5543 40.9115 39.8769C40.8142 40.2602 40.9385 40.9242 40.3115 40.9026C39.6574 40.8811 39.8574 40.2386 39.8304 39.8499C39.6682 37.6798 39.5547 35.5042 39.4088 33.3286C39.3763 32.8589 39.4682 32.3677 39.1709 31.7846C38.7493 32.535 38.7763 33.3016 38.5547 33.9872C38.4088 34.4353 38.6034 35.2396 37.8844 35.2234C37.3061 35.2127 37.4033 34.4893 37.2736 34.052C37.1277 33.5715 37.0033 33.0857 36.5979 32.589C36.2466 33.334 35.8898 34.079 35.5385 34.8186C35.4033 35.1047 35.3006 35.488 34.8952 35.4232C34.5276 35.3638 34.4466 34.9859 34.3817 34.6728C34.1222 33.4474 33.8844 32.2219 33.6249 31.0018C33.5438 30.6186 33.5276 30.2029 33.0628 29.7764C32.7114 32.9723 32.3871 36.0548 32.0195 39.1319C31.9492 39.715 32.2087 40.6975 31.4033 40.7191C30.7222 40.7407 30.8898 39.7474 30.76 39.2021C30.333 37.4098 29.9816 35.6067 29.5438 33.5499C28.8843 34.2841 28.8141 35.0237 28.5059 35.6283C28.333 35.9684 28.3005 36.5191 27.787 36.4543C27.3708 36.4057 27.36 35.9306 27.2735 35.5851C27.0194 34.5378 26.7546 33.4905 26.4573 32.3083C25.5708 33.0587 25.1491 33.9764 24.6356 34.797C24.2464 35.4178 23.8248 35.6931 23.0843 35.6877C19.6518 35.6607 16.2247 35.6823 12.7922 35.6661C12.4301 35.6661 11.8301 35.8551 11.7976 35.2882C11.7652 34.635 12.4084 34.7646 12.8139 34.7646C15.8031 34.7484 18.7923 34.6944 21.7707 34.797C23.1167 34.8456 23.9708 34.4461 24.5599 33.2422C24.9491 32.4486 25.4951 31.7414 25.9816 30.9964C26.1546 30.7319 26.3167 30.3594 26.6843 30.4242C27.1059 30.4998 27.1438 30.9263 27.2194 31.2826C27.4086 32.1625 27.614 33.0425 27.8627 34.1546L27.8357 34.1923ZM67.8686 40.352C76.7336 40.4762 83.9282 31.2988 79.9336 22.2563C76.9174 15.4219 72.8038 9.28379 68.5173 3.2267C68.0686 2.58968 67.7605 2.65986 67.3605 3.2375C66.3983 4.62491 65.3929 5.99072 64.4415 7.38893C61.3766 11.8913 58.4577 16.4746 56.2793 21.4843C55.5441 23.1795 54.8468 24.907 54.7657 26.7964C54.4468 34.0844 60.4847 40.3304 67.8686 40.3466V40.352Z" fill="#D30F0F"/>
<path d="M20.9842 54.8113C22.0147 55.4178 22.9521 55.897 23.3432 56.9584C24.1378 59.1177 22.9955 61.0708 20.4938 61.6106C17.843 62.1807 15.1425 61.7986 12.4669 61.8896C11.8772 61.9078 11.7964 61.5499 11.7964 61.095C11.7964 57.2011 11.7964 53.3071 11.7964 49.4131C11.7964 48.9279 11.9641 48.6489 12.5166 48.661C14.8321 48.6914 17.1539 48.5943 19.4508 48.7702C20.9904 48.8854 22.53 49.4374 22.9955 51.1418C23.4487 52.8037 22.6355 54.0107 20.9842 54.8113ZM17.1663 59.427C17.7374 59.4392 18.4824 59.427 19.1777 59.1541C19.7116 58.9418 20.0778 58.5536 20.1089 57.9289C20.1337 57.383 19.9537 56.9281 19.457 56.6855C18.2092 56.0608 16.8683 56.2245 15.5398 56.3276C15.2853 56.3458 15.1984 56.5763 15.1177 56.8007C14.5279 58.5294 15.1922 59.4634 17.1663 59.421V59.427ZM17.3091 54.0289C17.3898 54.0289 17.8057 54.0289 18.2154 53.9743C19.0908 53.853 19.7178 53.4102 19.7053 52.4943C19.6929 51.6391 19.0597 51.2085 18.2589 51.1236C17.4829 51.0386 16.6945 51.0811 15.9123 51.069C15.4095 51.0568 15.1922 51.3055 15.0991 51.7847C14.7328 53.58 15.0991 54.0349 17.3091 54.0289Z" fill="white"/>
<path d="M54.9458 60.785C52.3612 62.3963 49.9219 62.252 48.4026 60.4723C46.7683 58.5544 46.7804 54.959 48.4389 53.1071C49.9945 51.3635 52.4278 51.2433 54.8853 52.8546C55.2545 51.61 55.0547 50.3715 55.0426 49.163C55.0366 48.2732 55.2363 47.9004 56.229 47.9244C58.2204 47.9665 58.2265 47.9124 58.2265 49.9326C58.2265 53.522 58.1962 57.1054 58.2447 60.6948C58.2568 61.6327 57.9844 62.0476 57.0401 61.8792C56.223 61.7349 54.9458 62.5106 54.9458 60.785ZM50.3637 56.8348C50.3637 58.4462 51.3019 59.5404 52.6941 59.5404C54.05 59.5404 55.0608 58.368 55.0426 56.8228C55.0245 55.3558 54.0257 54.1894 52.7546 54.1413C51.4169 54.0932 50.3698 55.2716 50.3637 56.8288V56.8348Z" fill="white"/>
<path d="M67.2466 48.6724C68.2407 48.6783 69.6032 49.2035 70.8546 50.0809C71.5037 50.5345 71.8019 50.9701 71.071 51.6087C70.8722 51.7818 70.7026 51.9967 70.5622 52.2175C70.1178 52.9217 69.7611 52.9516 69.0828 52.3488C67.7261 51.1492 66.0537 51.0776 64.7204 51.937C63.3813 52.8024 62.7731 54.4018 63.124 56.1505C63.428 57.6605 64.6678 58.8541 66.1823 59.0451C67.2817 59.1883 68.2933 58.8541 69.112 58.1499C69.7436 57.6068 70.0535 57.7321 70.5622 58.2931C71.878 59.7493 71.9014 59.7493 70.1997 60.7878C67.5975 62.3753 64.4865 62.3037 62.3287 60.6147C60.1124 58.878 59.2177 56.0908 59.9954 53.3335C60.8024 50.4688 63.5625 48.5411 67.2524 48.6664L67.2466 48.6724Z" fill="white"/>
<path d="M88.7624 53.204C89.5137 52.6409 89.9847 52.1257 90.6764 51.886C93.3059 50.9634 95.6551 52.4192 95.7982 55.1989C95.8996 57.1579 95.7982 59.1289 95.8459 61.0999C95.8579 61.7948 95.5478 61.8787 94.9635 61.9026C92.656 61.9925 92.656 62.0105 92.656 59.728C92.656 58.6976 92.656 57.6731 92.656 56.6427C92.656 55.4805 92.2267 54.6178 90.9566 54.48C89.8893 54.3662 88.9413 55.163 88.828 56.4211C88.6968 57.8409 88.7028 59.2787 88.7564 60.7045C88.7922 61.639 88.506 62.0224 87.5639 61.8966C87.1704 61.8427 86.759 61.8547 86.3655 61.8966C85.7036 61.9625 85.5307 61.645 85.5307 61.034C85.5486 58.2602 85.5545 55.4925 85.5247 52.7187C85.5128 51.9579 85.7811 51.6464 86.5324 51.7363C86.753 51.7662 86.9796 51.7602 87.2002 51.7363C88.1602 51.6344 88.9949 51.6883 88.7684 53.204H88.7624Z" fill="white"/>
<path d="M100.594 53.1964C101.686 52.068 102.772 51.5698 104.098 51.6118C106.018 51.6718 107.47 52.8843 107.578 54.8109C107.698 56.9056 107.608 59.0183 107.638 61.119C107.65 61.7192 107.398 61.8453 106.846 61.8753C104.44 62.0253 104.44 62.0434 104.44 59.6485C104.44 58.5742 104.44 57.4998 104.434 56.4255C104.434 55.2611 103.876 54.5468 102.706 54.4388C101.662 54.3487 100.714 55.147 100.63 56.2994C100.528 57.7699 100.54 59.2524 100.582 60.7289C100.606 61.5632 100.408 62.0133 99.4776 61.8693C99.2136 61.8273 98.9376 61.8273 98.6735 61.8693C97.6235 62.0374 97.2874 61.6292 97.3234 60.5609C97.4014 58.1901 97.3474 55.8192 97.3474 53.4424C97.3474 51.6959 97.3474 51.7379 99.0636 51.6838C99.9936 51.6598 100.798 51.6478 100.594 53.1964Z" fill="white"/>
<path d="M78.5382 61.9313C75.1387 61.9313 72.9727 59.903 72.9907 56.7312C73.0088 53.6256 75.1507 51.6215 78.472 51.6094C81.8294 51.5974 84.0737 53.6858 84.0496 56.8035C84.0315 59.8669 81.8113 61.9313 78.5322 61.9313H78.5382ZM76.2578 56.7673C76.2458 58.3382 77.1483 59.4336 78.472 59.4516C79.7897 59.4697 80.7765 58.3562 80.7885 56.8396C80.8065 55.3349 79.8258 54.1673 78.5442 54.1493C77.2205 54.1312 76.2699 55.2206 76.2518 56.7734L76.2578 56.7673Z" fill="white"/>
<path d="M115.828 57.6261C114.938 57.6261 114.049 57.65 113.154 57.6201C112.324 57.5961 112.384 57.9735 112.706 58.5066C113.351 59.5668 114.956 59.8663 116.299 59.1715C117.093 58.7642 118.287 59.2074 118.591 59.998C118.758 60.4233 118.406 60.5551 118.203 60.7408C116.442 62.34 112.605 62.3221 110.749 60.7228C108.917 59.1475 108.564 55.7872 110.015 53.7267C111.453 51.6782 114.664 50.9894 116.992 52.2233C118.543 53.0499 119.618 55.2242 119.415 56.9792C119.349 57.5422 119.08 57.6261 118.633 57.6261C117.696 57.6201 116.765 57.6261 115.828 57.6261ZM114.336 55.9609C114.515 55.9609 114.7 55.9969 114.867 55.9549C115.326 55.8351 116.072 56.3143 116.216 55.5956C116.371 54.8169 115.816 54.2898 115.088 53.9963C114.509 53.7627 113.948 53.8166 113.429 54.1221C112.873 54.4455 112.33 54.9427 112.462 55.5896C112.605 56.3023 113.351 55.8351 113.81 55.9549C113.978 55.9969 114.163 55.9609 114.342 55.9549L114.336 55.9609Z" fill="white"/>
<path d="M3.33656 57.6182C3.9944 59.5115 5.56726 60.0507 7.27168 59.146C8.00727 58.7506 9.30502 59.2778 9.54424 60.0447C9.65787 60.4102 9.35287 60.5061 9.18541 60.6678C7.44511 62.3454 3.49803 62.3514 1.61419 60.6918C-0.263659 59.0322 -0.550717 55.6531 1.00419 53.5741C2.51724 51.555 5.95 50.9738 8.16874 52.3878C9.80738 53.4303 10.2918 55.0539 10.3217 56.8933C10.3337 57.6482 9.84326 57.6242 9.33492 57.6242C7.37335 57.6242 5.41177 57.6242 3.33058 57.6242L3.33656 57.6182ZM5.21441 55.9586C5.43568 55.9586 5.6749 56.0125 5.87226 55.9466C6.31481 55.8088 7.06834 56.3421 7.17001 55.5452C7.25374 54.9161 6.81118 54.3829 6.20716 54.0773C5.56726 53.7538 4.92735 53.7718 4.30539 54.1313C3.74323 54.4608 3.21695 54.982 3.33656 55.5991C3.46812 56.3001 4.22166 55.8268 4.68215 55.9466C4.8496 55.9886 5.035 55.9526 5.20843 55.9526L5.21441 55.9586Z" fill="white"/>
<path d="M43.3921 53.8213C43.3644 55.2022 43.8579 56.3567 44.4458 57.4886C45.0115 58.5695 45.6326 59.6222 46.1262 60.7314C46.897 62.4745 46.2593 63.9176 44.4957 64.5628C43.3255 64.9929 42.1387 64.9816 40.9741 64.5572C39.4546 64.0025 38.8001 62.7348 39.1828 61.0031C39.815 58.1564 41.501 55.9379 43.3921 53.8213Z" fill="url(#paint0_linear_678_456)"/>
<path d="M35.7504 49.3975C35.7443 51.0729 36.4666 52.3481 37.2257 53.6175C37.8012 54.5839 38.4011 55.5502 38.8296 56.5795C39.4846 58.1578 38.8051 59.4558 37.1155 60.0791C36.4299 60.3307 35.7198 60.4622 34.979 60.4565C31.7039 60.4336 30.302 58.6724 31.2631 55.7675C31.8998 53.8405 34.0791 50.6955 35.7565 49.3975H35.7504Z" fill="url(#paint1_linear_678_456)"/>
<path d="M125.671 61.9231C122.779 61.911 120.936 60.5449 120.358 58.258C119.755 55.8689 120.692 53.3834 122.612 52.2821C124.597 51.1386 127.686 51.4997 129.201 53.0103C129.767 53.582 129.857 53.9491 129.034 54.3824C128.205 54.8217 127.603 55.2851 126.589 54.4907C125.754 53.8347 124.615 54.0995 123.9 55.0985C123.172 56.1156 123.256 57.8789 124.102 58.7274C124.943 59.57 125.915 59.588 126.899 58.9983C127.704 58.5108 128.974 58.7275 129.6 59.4496C129.994 59.901 129.565 60.1176 129.38 60.3343C128.3 61.562 126.881 61.9652 125.671 61.9291V61.9231Z" fill="white"/>
<path d="M131.9 57.0324C131.9 56.373 131.9 55.7135 131.9 55.0541C131.9 54.7067 131.93 54.2768 131.393 54.3298C130.507 54.4123 130.525 53.8823 130.501 53.2582C130.477 52.5693 130.604 52.2042 131.429 52.216C132.147 52.2278 131.809 51.5801 131.906 51.2033C132.05 50.6439 131.52 49.7784 132.243 49.5546C133.021 49.3191 133.955 49.378 134.775 49.537C135.408 49.6606 135.143 50.379 135.094 50.7911C134.956 51.9452 135.348 52.4398 136.565 52.2396C137.397 52.1041 137.855 52.2808 137.849 53.3112C137.843 54.3181 137.349 54.4123 136.607 54.2945C135.299 54.0884 134.974 54.7008 135.107 55.8372C135.179 56.4436 135.131 57.0678 135.119 57.6801C135.1 58.8283 135.348 59.6232 136.837 59.1934C137.741 58.9284 137.518 59.8116 137.699 60.2061C137.91 60.6654 138.06 61.1364 137.319 61.4838C134.624 62.7438 131.96 61.2306 131.912 58.3455C131.906 57.9039 131.912 57.4682 131.912 57.0266L131.9 57.0324Z" fill="white"/>
<path d="M28.7212 54.8031C28.7212 56.7793 28.6426 58.7615 28.7498 60.7317C28.8213 62.003 27.9491 61.9548 26.9411 61.9187C26.0189 61.8886 25.0395 62.1356 25.0681 60.792C25.1468 56.8817 25.1468 52.9714 25.0681 49.0672C25.0395 47.579 26.2048 48.0309 27.1056 47.9465C28.1636 47.8501 28.807 48.0188 28.7426 49.1395C28.6426 51.0253 28.7141 52.9112 28.7212 54.797V54.8031Z" fill="white"/>
<path d="M67.8707 37.5794C62.2308 37.5319 57.6683 33.0761 57.5098 27.5604C57.4729 26.2369 57.9323 25.0082 58.3284 23.7691C58.5132 23.1837 58.9251 23.3788 59.2842 23.4685C60.5252 23.7585 61.782 23.7269 63.0441 23.7585C64.0738 23.7849 64.7762 22.8146 65.6686 22.8568C66.5927 22.899 66.8937 24.1751 67.8918 24.4493C69.2965 24.8395 70.5269 24.5917 71.7151 23.8271C73.0458 22.9675 75.9925 23.0308 77.2387 23.922C77.5609 24.1487 77.6137 24.5126 77.7246 24.8395C79.4567 30.1443 75.7284 36.1767 69.9883 37.3368C69.2595 37.4845 68.5255 37.6638 67.876 37.5794H67.8707Z" fill="#D30F0F"/>
<path d="M33.0581 73.271C33.0288 72.9963 32.9051 72.7825 32.687 72.6294C32.4711 72.4764 32.1902 72.3999 31.8442 72.3999C31.601 72.3999 31.3924 72.4366 31.2184 72.5099C31.0444 72.5833 30.9113 72.6829 30.819 72.8087C30.7268 72.9345 30.6796 73.0781 30.6775 73.2395C30.6775 73.3737 30.7079 73.49 30.7687 73.5886C30.8316 73.6871 30.9165 73.771 31.0235 73.8402C31.1304 73.9073 31.2488 73.9639 31.3788 74.01C31.5088 74.0561 31.6398 74.0949 31.7719 74.1263L32.3757 74.2773C32.6189 74.3339 32.8527 74.4104 33.077 74.5069C33.3034 74.6033 33.5057 74.7249 33.6839 74.8716C33.8642 75.0184 34.0068 75.1956 34.1116 75.4031C34.2164 75.6107 34.2688 75.8539 34.2688 76.1327C34.2688 76.5101 34.1724 76.8424 33.9795 77.1296C33.7866 77.4147 33.5078 77.638 33.143 77.7994C32.7803 77.9587 32.3411 78.0384 31.8254 78.0384C31.3243 78.0384 30.8893 77.9608 30.5203 77.8057C30.1534 77.6506 29.8662 77.4241 29.6586 77.1264C29.4532 76.8287 29.3421 76.466 29.3253 76.0383H30.4731C30.4899 76.2627 30.5591 76.4493 30.6807 76.5981C30.8023 76.747 30.9606 76.8581 31.1555 76.9315C31.3526 77.0048 31.5727 77.0415 31.8159 77.0415C32.0696 77.0415 32.2918 77.0038 32.4826 76.9283C32.6755 76.8507 32.8264 76.7438 32.9355 76.6075C33.0445 76.4692 33.1 76.3077 33.1021 76.1233C33.1 75.9555 33.0508 75.8172 32.9543 75.7081C32.8579 75.597 32.7227 75.5048 32.5487 75.4314C32.3767 75.3559 32.1755 75.2888 31.9449 75.2301L31.2121 75.0415C30.6817 74.9052 30.2624 74.6987 29.9542 74.4219C29.6482 74.1431 29.4951 73.7731 29.4951 73.3118C29.4951 72.9324 29.5978 72.6001 29.8033 72.315C30.0108 72.0298 30.2928 71.8087 30.6492 71.6514C31.0056 71.4921 31.4092 71.4124 31.86 71.4124C32.317 71.4124 32.7174 71.4921 33.0613 71.6514C33.4072 71.8087 33.6787 72.0277 33.8757 72.3087C34.0728 72.5875 34.1745 72.9083 34.1808 73.271H33.0581ZM36.6486 78.0384C36.3425 78.0384 36.0668 77.9839 35.8216 77.8749C35.5784 77.7638 35.3855 77.6002 35.2429 77.3843C35.1025 77.1684 35.0322 76.9021 35.0322 76.5855C35.0322 76.313 35.0825 76.0876 35.1832 75.9094C35.2838 75.7312 35.4211 75.5886 35.5951 75.4817C35.7691 75.3748 35.9652 75.2941 36.1832 75.2396C36.4033 75.183 36.6308 75.1421 36.8656 75.1169C37.1486 75.0876 37.3782 75.0614 37.5543 75.0383C37.7304 75.0132 37.8583 74.9754 37.938 74.9251C38.0197 74.8727 38.0606 74.792 38.0606 74.683V74.6641C38.0606 74.4272 37.9904 74.2437 37.8499 74.1138C37.7095 73.9838 37.5071 73.9188 37.243 73.9188C36.9642 73.9188 36.743 73.9796 36.5794 74.1012C36.418 74.2228 36.309 74.3664 36.2524 74.532L35.1895 74.3811C35.2733 74.0876 35.4117 73.8423 35.6046 73.6452C35.7974 73.446 36.0333 73.2972 36.3121 73.1986C36.591 73.098 36.8992 73.0477 37.2367 73.0477C37.4694 73.0477 37.7011 73.0749 37.9317 73.1295C38.1623 73.184 38.373 73.2741 38.5638 73.3999C38.7546 73.5236 38.9076 73.6924 39.0229 73.9062C39.1403 74.12 39.199 74.3874 39.199 74.7081V77.9409H38.1046V77.2774H38.0669C37.9977 77.4116 37.9002 77.5373 37.7744 77.6547C37.6508 77.7701 37.4946 77.8633 37.3059 77.9346C37.1193 78.0038 36.9002 78.0384 36.6486 78.0384ZM36.9442 77.2019C37.1728 77.2019 37.3709 77.1568 37.5386 77.0667C37.7063 76.9744 37.8352 76.8528 37.9254 76.7019C38.0176 76.5509 38.0638 76.3864 38.0638 76.2082V75.639C38.0281 75.6683 37.9673 75.6956 37.8814 75.7207C37.7975 75.7459 37.7032 75.7679 37.5983 75.7868C37.4935 75.8056 37.3897 75.8224 37.287 75.8371C37.1843 75.8518 37.0952 75.8643 37.0197 75.8748C36.8499 75.8979 36.6979 75.9356 36.5637 75.988C36.4295 76.0404 36.3237 76.1138 36.2461 76.2082C36.1685 76.3004 36.1297 76.4199 36.1297 76.5667C36.1297 76.7763 36.2063 76.9346 36.3593 77.0415C36.5124 77.1484 36.7073 77.2019 36.9442 77.2019ZM44.4853 73.1106L42.7652 77.9409H41.5073L39.7871 73.1106H41.001L42.1111 76.6987H42.1614L43.2746 73.1106H44.4853ZM47.2472 78.0353C46.7629 78.0353 46.3447 77.9346 45.9925 77.7334C45.6423 77.53 45.3729 77.2428 45.1843 76.8717C44.9956 76.4985 44.9012 76.0593 44.9012 75.5541C44.9012 75.0572 44.9956 74.6211 45.1843 74.2458C45.375 73.8685 45.6413 73.575 45.983 73.3653C46.3248 73.1536 46.7262 73.0477 47.1875 73.0477C47.4852 73.0477 47.7661 73.0959 48.0303 73.1923C48.2965 73.2867 48.5313 73.4334 48.7347 73.6326C48.9401 73.8318 49.1016 74.0855 49.219 74.3936C49.3364 74.6997 49.3951 75.0645 49.3951 75.488V75.8371H45.4358V75.0698H48.3039C48.3018 74.8517 48.2546 74.6578 48.1623 74.488C48.0701 74.3161 47.9412 74.1808 47.7755 74.0823C47.612 73.9838 47.4212 73.9345 47.2032 73.9345C46.9705 73.9345 46.7661 73.9911 46.59 74.1043C46.4139 74.2154 46.2765 74.3622 46.178 74.5446C46.0816 74.7249 46.0323 74.923 46.0302 75.1389V75.8088C46.0302 76.0897 46.0816 76.3308 46.1843 76.5321C46.287 76.7312 46.4306 76.8843 46.6151 76.9912C46.7996 77.096 47.0156 77.1484 47.2629 77.1484C47.4286 77.1484 47.5785 77.1254 47.7126 77.0793C47.8468 77.031 47.9632 76.9608 48.0617 76.8686C48.1602 76.7763 48.2347 76.6621 48.285 76.5258L49.3479 76.6453C49.2808 76.9262 49.1529 77.1715 48.9643 77.3812C48.7777 77.5887 48.5387 77.7501 48.2473 77.8654C47.9558 77.9787 47.6225 78.0353 47.2472 78.0353ZM52.6051 77.9409V71.5005H55.0706C55.536 71.5005 55.9228 71.5738 56.231 71.7206C56.5413 71.8653 56.7729 72.0634 56.926 72.315C57.0811 72.5665 57.1587 72.8517 57.1587 73.1703C57.1587 73.4324 57.1084 73.6567 57.0077 73.8433C56.9071 74.0278 56.7719 74.1777 56.6021 74.293C56.4322 74.4083 56.2425 74.4911 56.0329 74.5414V74.6043C56.2614 74.6169 56.4805 74.6872 56.6901 74.815C56.9019 74.9408 57.0748 75.119 57.209 75.3496C57.3432 75.5803 57.4103 75.8591 57.4103 76.1861C57.4103 76.5195 57.3295 76.8193 57.1681 77.0855C57.0067 77.3497 56.7635 77.5583 56.4385 77.7114C56.1136 77.8644 55.7048 77.9409 55.2121 77.9409H52.6051ZM53.7718 76.966H55.0265C55.45 76.966 55.7551 76.8853 55.9417 76.7239C56.1304 76.5604 56.2247 76.3507 56.2247 76.0949C56.2247 75.9042 56.1775 75.7323 56.0832 75.5792C55.9888 75.4241 55.8547 75.3025 55.6807 75.2144C55.5066 75.1243 55.2991 75.0792 55.058 75.0792H53.7718V76.966ZM53.7718 74.2395H54.9259C55.1272 74.2395 55.3085 74.2029 55.47 74.1295C55.6314 74.054 55.7582 73.9481 55.8505 73.8119C55.9448 73.6735 55.992 73.51 55.992 73.3213C55.992 73.0718 55.9039 72.8663 55.7278 72.7049C55.5538 72.5435 55.2949 72.4628 54.9511 72.4628H53.7718V74.2395ZM59.5133 71.5005V77.9409H58.3749V71.5005H59.5133ZM62.7909 78.0353C62.3192 78.0353 61.9104 77.9315 61.5645 77.7239C61.2186 77.5164 60.9502 77.226 60.7594 76.8528C60.5707 76.4797 60.4764 76.0436 60.4764 75.5446C60.4764 75.0457 60.5707 74.6085 60.7594 74.2333C60.9502 73.858 61.2186 73.5666 61.5645 73.359C61.9104 73.1515 62.3192 73.0477 62.7909 73.0477C63.2626 73.0477 63.6715 73.1515 64.0174 73.359C64.3633 73.5666 64.6306 73.858 64.8193 74.2333C65.0101 74.6085 65.1055 75.0457 65.1055 75.5446C65.1055 76.0436 65.0101 76.4797 64.8193 76.8528C64.6306 77.226 64.3633 77.5164 64.0174 77.7239C63.6715 77.9315 63.2626 78.0353 62.7909 78.0353ZM62.7972 77.1233C63.053 77.1233 63.2668 77.0531 63.4387 76.9126C63.6107 76.77 63.7385 76.5792 63.8224 76.3402C63.9084 76.1012 63.9513 75.835 63.9513 75.5415C63.9513 75.2459 63.9084 74.9786 63.8224 74.7396C63.7385 74.4985 63.6107 74.3066 63.4387 74.1641C63.2668 74.0215 63.053 73.9502 62.7972 73.9502C62.5352 73.9502 62.3171 74.0215 62.1431 74.1641C61.9712 74.3066 61.8423 74.4985 61.7563 74.7396C61.6724 74.9786 61.6305 75.2459 61.6305 75.5415C61.6305 75.835 61.6724 76.1012 61.7563 76.3402C61.8423 76.5792 61.9712 76.77 62.1431 76.9126C62.3171 77.0531 62.5352 77.1233 62.7972 77.1233ZM68.1787 78.0353C67.707 78.0353 67.2981 77.9315 66.9522 77.7239C66.6063 77.5164 66.3379 77.226 66.1472 76.8528C65.9585 76.4797 65.8641 76.0436 65.8641 75.5446C65.8641 75.0457 65.9585 74.6085 66.1472 74.2333C66.3379 73.858 66.6063 73.5666 66.9522 73.359C67.2981 73.1515 67.707 73.0477 68.1787 73.0477C68.6504 73.0477 69.0592 73.1515 69.4051 73.359C69.751 73.5666 70.0184 73.858 70.207 74.2333C70.3978 74.6085 70.4932 75.0457 70.4932 75.5446C70.4932 76.0436 70.3978 76.4797 70.207 76.8528C70.0184 77.226 69.751 77.5164 69.4051 77.7239C69.0592 77.9315 68.6504 78.0353 68.1787 78.0353ZM68.185 77.1233C68.4407 77.1233 68.6546 77.0531 68.8265 76.9126C68.9984 76.77 69.1263 76.5792 69.2102 76.3402C69.2961 76.1012 69.3391 75.835 69.3391 75.5415C69.3391 75.2459 69.2961 74.9786 69.2102 74.7396C69.1263 74.4985 68.9984 74.3066 68.8265 74.1641C68.6546 74.0215 68.4407 73.9502 68.185 73.9502C67.9229 73.9502 67.7049 74.0215 67.5309 74.1641C67.3589 74.3066 67.23 74.4985 67.144 74.7396C67.0602 74.9786 67.0183 75.2459 67.0183 75.5415C67.0183 75.835 67.0602 76.1012 67.144 76.3402C67.23 76.5792 67.3589 76.77 67.5309 76.9126C67.7049 77.0531 67.9229 77.1233 68.185 77.1233ZM73.2519 78.0258C72.8725 78.0258 72.5328 77.9283 72.233 77.7334C71.9332 77.5384 71.6963 77.2554 71.5223 76.8843C71.3483 76.5132 71.2613 76.0625 71.2613 75.532C71.2613 74.9953 71.3494 74.5425 71.5255 74.1735C71.7037 73.8024 71.9437 73.5225 72.2456 73.3339C72.5475 73.1431 72.884 73.0477 73.2551 73.0477C73.5381 73.0477 73.7708 73.0959 73.9532 73.1923C74.1356 73.2867 74.2803 73.4009 74.3872 73.5351C74.4941 73.6672 74.5769 73.7919 74.6356 73.9093H74.6828V71.5005H75.8243V77.9409H74.7048V77.1799H74.6356C74.5769 77.2973 74.492 77.422 74.3809 77.5541C74.2698 77.6841 74.123 77.7952 73.9406 77.8875C73.7582 77.9797 73.5287 78.0258 73.2519 78.0258ZM73.5696 77.0918C73.8107 77.0918 74.0161 77.0268 74.1859 76.8969C74.3557 76.7648 74.4847 76.5813 74.5727 76.3465C74.6608 76.1117 74.7048 75.8381 74.7048 75.5258C74.7048 75.2134 74.6608 74.9419 74.5727 74.7113C74.4868 74.4806 74.3589 74.3014 74.1891 74.1735C74.0214 74.0456 73.8148 73.9817 73.5696 73.9817C73.3159 73.9817 73.1041 74.0477 72.9343 74.1798C72.7645 74.3119 72.6366 74.4943 72.5507 74.727C72.4647 74.9597 72.4217 75.226 72.4217 75.5258C72.4217 75.8276 72.4647 76.097 72.5507 76.334C72.6387 76.5688 72.7676 76.7543 72.9375 76.8906C73.1094 77.0247 73.3201 77.0918 73.5696 77.0918ZM82.7845 73.271C82.7551 72.9963 82.6314 72.7825 82.4134 72.6294C82.1974 72.4764 81.9165 72.3999 81.5706 72.3999C81.3274 72.3999 81.1188 72.4366 80.9448 72.5099C80.7708 72.5833 80.6376 72.6829 80.5454 72.8087C80.4532 72.9345 80.406 73.0781 80.4039 73.2395C80.4039 73.3737 80.4343 73.49 80.4951 73.5886C80.558 73.6871 80.6429 73.771 80.7498 73.8402C80.8567 73.9073 80.9752 73.9639 81.1052 74.01C81.2351 74.0561 81.3662 74.0949 81.4983 74.1263L82.1021 74.2773C82.3452 74.3339 82.579 74.4104 82.8033 74.5069C83.0298 74.6033 83.2321 74.7249 83.4103 74.8716C83.5906 75.0184 83.7331 75.1956 83.838 75.4031C83.9428 75.6107 83.9952 75.8539 83.9952 76.1327C83.9952 76.5101 83.8988 76.8424 83.7059 77.1296C83.513 77.4147 83.2342 77.638 82.8694 77.7994C82.5067 77.9587 82.0675 78.0384 81.5517 78.0384C81.0507 78.0384 80.6156 77.9608 80.2466 77.8057C79.8798 77.6506 79.5925 77.4241 79.385 77.1264C79.1795 76.8287 79.0684 76.466 79.0516 76.0383H80.1995C80.2163 76.2627 80.2854 76.4493 80.407 76.5981C80.5286 76.747 80.6869 76.8581 80.8819 76.9315C81.079 77.0048 81.2991 77.0415 81.5423 77.0415C81.796 77.0415 82.0182 77.0038 82.209 76.9283C82.4019 76.8507 82.5528 76.7438 82.6618 76.6075C82.7708 76.4692 82.8264 76.3077 82.8285 76.1233C82.8264 75.9555 82.7771 75.8172 82.6807 75.7081C82.5842 75.597 82.449 75.5048 82.275 75.4314C82.1031 75.3559 81.9018 75.2888 81.6712 75.2301L80.9385 75.0415C80.4081 74.9052 79.9888 74.6987 79.6806 74.4219C79.3745 74.1431 79.2215 73.7731 79.2215 73.3118C79.2215 72.9324 79.3242 72.6001 79.5296 72.315C79.7372 72.0298 80.0192 71.8087 80.3756 71.6514C80.732 71.4921 81.1356 71.4124 81.5863 71.4124C82.0433 71.4124 82.4438 71.4921 82.7876 71.6514C83.1335 71.8087 83.405 72.0277 83.6021 72.3087C83.7992 72.5875 83.9008 72.9083 83.9071 73.271H82.7845ZM86.375 78.0384C86.0689 78.0384 85.7932 77.9839 85.5479 77.8749C85.3047 77.7638 85.1118 77.6002 84.9693 77.3843C84.8288 77.1684 84.7586 76.9021 84.7586 76.5855C84.7586 76.313 84.8089 76.0876 84.9095 75.9094C85.0102 75.7312 85.1475 75.5886 85.3215 75.4817C85.4955 75.3748 85.6915 75.2941 85.9096 75.2396C86.1297 75.183 86.3572 75.1421 86.592 75.1169C86.875 75.0876 87.1046 75.0614 87.2807 75.0383C87.4568 75.0132 87.5847 74.9754 87.6643 74.9251C87.7461 74.8727 87.787 74.792 87.787 74.683V74.6641C87.787 74.4272 87.7167 74.2437 87.5763 74.1138C87.4358 73.9838 87.2335 73.9188 86.9693 73.9188C86.6905 73.9188 86.4693 73.9796 86.3058 74.1012C86.1444 74.2228 86.0353 74.3664 85.9787 74.532L84.9158 74.3811C84.9997 74.0876 85.138 73.8423 85.3309 73.6452C85.5238 73.446 85.7597 73.2972 86.0385 73.1986C86.3173 73.098 86.6255 73.0477 86.963 73.0477C87.1958 73.0477 87.4274 73.0749 87.658 73.1295C87.8887 73.184 88.0994 73.2741 88.2901 73.3999C88.4809 73.5236 88.634 73.6924 88.7493 73.9062C88.8667 74.12 88.9254 74.3874 88.9254 74.7081V77.9409H87.831V77.2774H87.7933C87.7241 77.4116 87.6266 77.5373 87.5008 77.6547C87.3771 77.7701 87.2209 77.8633 87.0322 77.9346C86.8456 78.0038 86.6266 78.0384 86.375 78.0384ZM86.6706 77.2019C86.8991 77.2019 87.0972 77.1568 87.2649 77.0667C87.4327 76.9744 87.5616 76.8528 87.6517 76.7019C87.744 76.5509 87.7901 76.3864 87.7901 76.2082V75.639C87.7545 75.6683 87.6937 75.6956 87.6077 75.7207C87.5239 75.7459 87.4295 75.7679 87.3247 75.7868C87.2199 75.8056 87.1161 75.8224 87.0134 75.8371C86.9106 75.8518 86.8215 75.8643 86.7461 75.8748C86.5762 75.8979 86.4242 75.9356 86.2901 75.988C86.1559 76.0404 86.05 76.1138 85.9725 76.2082C85.8949 76.3004 85.8561 76.4199 85.8561 76.5667C85.8561 76.7763 85.9326 76.9346 86.0857 77.0415C86.2387 77.1484 86.4337 77.2019 86.6706 77.2019ZM94.2117 73.1106L92.4915 77.9409H91.2336L89.5134 73.1106H90.7273L91.8374 76.6987H91.8877L93.001 73.1106H94.2117ZM96.9736 78.0353C96.4893 78.0353 96.071 77.9346 95.7188 77.7334C95.3687 77.53 95.0993 77.2428 94.9106 76.8717C94.7219 76.4985 94.6276 76.0593 94.6276 75.5541C94.6276 75.0572 94.7219 74.6211 94.9106 74.2458C95.1014 73.8685 95.3676 73.575 95.7094 73.3653C96.0511 73.1536 96.4526 73.0477 96.9138 73.0477C97.2115 73.0477 97.4925 73.0959 97.7566 73.1923C98.0229 73.2867 98.2577 73.4334 98.461 73.6326C98.6665 73.8318 98.8279 74.0855 98.9453 74.3936C99.0627 74.6997 99.1214 75.0645 99.1214 75.488V75.8371H95.1622V75.0698H98.0302C98.0281 74.8517 97.9809 74.6578 97.8887 74.488C97.7964 74.3161 97.6675 74.1808 97.5019 74.0823C97.3384 73.9838 97.1476 73.9345 96.9295 73.9345C96.6968 73.9345 96.4924 73.9911 96.3163 74.1043C96.1402 74.2154 96.0029 74.3622 95.9044 74.5446C95.8079 74.7249 95.7586 74.923 95.7565 75.1389V75.8088C95.7565 76.0897 95.8079 76.3308 95.9106 76.5321C96.0134 76.7312 96.157 76.8843 96.3415 76.9912C96.526 77.096 96.7419 77.1484 96.9893 77.1484C97.1549 77.1484 97.3048 77.1254 97.439 77.0793C97.5732 77.031 97.6895 76.9608 97.7881 76.8686C97.8866 76.7763 97.961 76.6621 98.0113 76.5258L99.0743 76.6453C99.0072 76.9262 98.8793 77.1715 98.6906 77.3812C98.504 77.5887 98.265 77.7501 97.9736 77.8654C97.6822 77.9787 97.3488 78.0353 96.9736 78.0353ZM102.331 77.9409V71.5005H103.498V76.9629H106.335V77.9409H102.331ZM107.297 77.9409V73.1106H108.435V77.9409H107.297ZM107.869 72.425C107.689 72.425 107.534 72.3653 107.404 72.2458C107.274 72.1242 107.209 71.9785 107.209 71.8087C107.209 71.6367 107.274 71.491 107.404 71.3715C107.534 71.2499 107.689 71.1891 107.869 71.1891C108.052 71.1891 108.207 71.2499 108.335 71.3715C108.465 71.491 108.53 71.6367 108.53 71.8087C108.53 71.9785 108.465 72.1242 108.335 72.2458C108.207 72.3653 108.052 72.425 107.869 72.425ZM112.053 73.1106V73.9911H109.197V73.1106H112.053ZM109.911 77.9409V72.6546C109.911 72.3296 109.978 72.0592 110.112 71.8432C110.249 71.6273 110.431 71.4659 110.66 71.359C110.888 71.252 111.142 71.1986 111.421 71.1986C111.618 71.1986 111.793 71.2143 111.946 71.2457C112.099 71.2772 112.212 71.3055 112.285 71.3307L112.059 72.2112C112.011 72.1965 111.95 72.1818 111.877 72.1672C111.803 72.1504 111.721 72.142 111.631 72.142C111.419 72.142 111.27 72.1934 111.182 72.2961C111.096 72.3967 111.053 72.5414 111.053 72.7301V77.9409H109.911ZM114.901 78.0353C114.417 78.0353 113.998 77.9346 113.646 77.7334C113.296 77.53 113.027 77.2428 112.838 76.8717C112.649 76.4985 112.555 76.0593 112.555 75.5541C112.555 75.0572 112.649 74.6211 112.838 74.2458C113.029 73.8685 113.295 73.575 113.637 73.3653C113.979 73.1536 114.38 73.0477 114.841 73.0477C115.139 73.0477 115.42 73.0959 115.684 73.1923C115.95 73.2867 116.185 73.4334 116.388 73.6326C116.594 73.8318 116.755 74.0855 116.873 74.3936C116.99 74.6997 117.049 75.0645 117.049 75.488V75.8371H113.09V75.0698H115.958C115.956 74.8517 115.908 74.6578 115.816 74.488C115.724 74.3161 115.595 74.1808 115.429 74.0823C115.266 73.9838 115.075 73.9345 114.857 73.9345C114.624 73.9345 114.42 73.9911 114.244 74.1043C114.068 74.2154 113.93 74.3622 113.832 74.5446C113.735 74.7249 113.686 74.923 113.684 75.1389V75.8088C113.684 76.0897 113.735 76.3308 113.838 76.5321C113.941 76.7312 114.084 76.8843 114.269 76.9912C114.453 77.096 114.669 77.1484 114.917 77.1484C115.082 77.1484 115.232 77.1254 115.366 77.0793C115.501 77.031 115.617 76.9608 115.715 76.8686C115.814 76.7763 115.888 76.6621 115.939 76.5258L117.002 76.6453C116.935 76.9262 116.807 77.1715 116.618 77.3812C116.431 77.5887 116.192 77.7501 115.901 77.8654C115.61 77.9787 115.276 78.0353 114.901 78.0353Z" fill="white"/>
<defs>
<linearGradient id="paint0_linear_678_456" x1="42.7622" y1="53.8213" x2="42.7622" y2="64.8805" gradientUnits="userSpaceOnUse">
<stop stop-color="#FF5050"/>
<stop offset="1" stop-color="#C90000"/>
</linearGradient>
<linearGradient id="paint1_linear_678_456" x1="35.0207" y1="49.3975" x2="35.0207" y2="60.4566" gradientUnits="userSpaceOnUse">
<stop stop-color="#FF5050"/>
<stop offset="1" stop-color="#C90000"/>
</linearGradient>
</defs>
</svg>
