<svg width="48" height="48" viewBox="0 0 48 48" fill="none" xmlns="http://www.w3.org/2000/svg">
<g clip-path="url(#clip0_1041_8)">
<path d="M45.1765 25.3778V19.7308H48V13.2495L24 0.0339966L0 13.2494V19.7307H2.82353V25.3777H5.64706V39.4954H0V47.966H48V39.4954H42.3529V25.3777H45.1765V25.3778ZM42.3529 22.5543H33.8824V19.7308H42.3529V22.5543ZM16.9412 19.7308H31.0588V25.3778H33.8824V39.4955H14.1176V25.3778H16.9412V19.7308ZM2.82353 14.918L24 3.25734L45.1765 14.918V16.9072C41.0281 16.9072 7.59445 16.9072 2.82353 16.9072V14.918ZM5.64706 19.7308H14.1176V22.5543H5.64706V19.7308ZM8.47059 25.3778H11.2941V39.4955H8.47059V25.3778ZM45.1765 42.319V45.1425H2.82353V42.319H45.1765ZM39.5294 39.4955H36.7059V25.3778H39.5294V39.4955Z" fill="url(#paint0_linear_1041_8)"/>
<path d="M24 36.6719C26.7599 36.6719 29.0054 34.4266 29.0054 31.6666C29.0054 28.7073 24.1475 23.404 24 23.175C22.4113 25.0802 18.9946 29.1182 18.9946 31.6666C18.9946 34.4265 21.2401 36.6719 24 36.6719ZM24 27.6812C24.5303 28.4044 26.1818 30.7674 26.1818 31.6666C26.1818 32.8697 25.2031 33.8484 24 33.8484C22.797 33.8484 21.8182 32.8698 21.8182 31.6666C21.8182 30.7692 23.465 28.4107 24 27.6812Z" fill="url(#paint1_linear_1041_8)"/>
<path d="M22.5882 14.0837H25.4118V11.966H27.5294V9.14249H25.4118V7.02484H22.5882V9.14249H20.4706V11.966H22.5882V14.0837Z" fill="url(#paint2_linear_1041_8)"/>
</g>
<defs>
<linearGradient id="paint0_linear_1041_8" x1="24" y1="0.0339966" x2="24" y2="47.966" gradientUnits="userSpaceOnUse">
<stop stop-color="#0E4973"/>
<stop offset="1" stop-color="#4385B4"/>
</linearGradient>
<linearGradient id="paint1_linear_1041_8" x1="24" y1="23.175" x2="24" y2="36.6719" gradientUnits="userSpaceOnUse">
<stop stop-color="#0E4973"/>
<stop offset="1" stop-color="#4385B4"/>
</linearGradient>
<linearGradient id="paint2_linear_1041_8" x1="24" y1="7.02484" x2="24" y2="14.0837" gradientUnits="userSpaceOnUse">
<stop stop-color="#0E4973"/>
<stop offset="1" stop-color="#4385B4"/>
</linearGradient>
<clipPath id="clip0_1041_8">
<rect width="48" height="48" fill="white"/>
</clipPath>
</defs>
</svg>
